<svg xmlns="http://www.w3.org/2000/svg" viewBox="0 0 109 109" xmlns:v="https://vecta.io/nano"><path d="M103 42.78a7.71 7.71 0 0 0-6.25-3.15h-5.5a11.36 11.36 0 0 0-11-8.5H43.43a7.07 7.07 0 0 1-7.06-7.06v-.76A11.32 11.32 0 0 0 25.07 12H15.8A11.32 11.32 0 0 0 4.5 23.31V85.7A11.32 11.32 0 0 0 15.8 97h64.5a11.31 11.31 0 0 0 10.86-8.13l13-39.16a.06.06 0 0 0 0 0 7.68 7.68 0 0 0-1.17-6.93zM15.8 16.25h9.27a7.06 7.06 0 0 1 7 7.06v.76a11.32 11.32 0 0 0 11.36 11.31H80.3a7.08 7.08 0 0 1 6.46 4.25H27.5a7.68 7.68 0 0 0-7.38 5.44L8.75 81.77V23.3a7.06 7.06 0 0 1 7.05-7.06zm84.3 32.14L87.16 87.47l-.1.3a7.07 7.07 0 0 1-6.73 4.94H15.8a7 7 0 0 1-5.27-2.39l13.66-44a3.45 3.45 0 0 1 3.32-2.45h69.23a3.5 3.5 0 0 1 2.83 1.42 3.45 3.45 0 0 1 .52 3.1z" fill="#fff"/></svg>