<svg xmlns="http://www.w3.org/2000/svg" viewBox="0 0 109 109" xmlns:v="https://vecta.io/nano"><path d="M92 23.58L82.42 14a9.92 9.92 0 0 0-14 0h0L21.06 61.33a2.16 2.16 0 0 0-.39.59l-.15.43-5 25.83a2 2 0 0 0 1.56 2.33h.38a2.34 2.34 0 0 0 .38 0l25.83-5a1.92 1.92 0 0 0 1-.54L92 37.6a9.92 9.92 0 0 0 0-14.02zM25.27 62.73L65.1 22.9l7.6 7.6-39.82 39.82zm17 19L20 86.05l3.7-19.28L35.82 78.9a2 2 0 0 0 2.84-2.77h0l-3-3L75.5 33.3l7.6 7.6zM89.2 34.8l-3.3 3.3-18-18 3.3-3.3a6.08 6.08 0 0 1 8.41 0l9.6 9.58a6 6 0 0 1 0 8.42zm-5.67 61.13a2 2 0 0 1-2 2H16.07a2 2 0 0 1 0-4h65.48a2 2 0 0 1 1.99 2z" fill="#fff"/></svg>