<svg xmlns="http://www.w3.org/2000/svg" viewBox="0 0 109 109" fill="#fff" xmlns:v="https://vecta.io/nano"><rect x="23.24" y="54.12" width="15.9" height="11.5" rx="2"/><rect x="46.34" y="54.12" width="15.9" height="11.5" rx="2"/><rect x="69.44" y="54.12" width="15.9" height="11.5" rx="2"/><rect x="23.24" y="74.62" width="15.9" height="11.5" rx="2"/><rect x="46.34" y="74.62" width="15.9" height="11.5" rx="2"/><rect x="69.44" y="74.62" width="15.9" height="11.5" rx="2"/><path d="M70.43 14.2v4h-14.1v6.3a4.74 4.74 0 1 1-4 0V9a2 2 0 1 1 4 0v5.2zm-24.83 0v4H31.5v6.28a4.75 4.75 0 1 1-4 0V9a2 2 0 1 1 4 0v5.2zm49.55 0h-14V9a2 2 0 0 0-4 0v15.5a4.74 4.74 0 1 0 4 0v-6.3h14a3 3 0 0 1 3 3v17h-87.3v-17a3 3 0 0 1 3-3h6.9v-4h-6.9a7 7 0 0 0-7 7V95a7 7 0 0 0 7 7h81.3a7 7 0 0 0 7-7V21.2a7 7 0 0 0-7-7zm3 80.78a3 3 0 0 1-3 3h-81.3a3 3 0 0 1-3-3V42.26h87.3z"/></svg>