<svg xmlns="http://www.w3.org/2000/svg" viewBox="0 0 109 109"><defs><style>.cls-1{fill:none;}.cls-2{fill:#fff;}</style></defs><g id="Layer_2" data-name="Layer 2"><g id="Layer_1-2" data-name="Layer 1"><rect class="cls-1" width="109" height="109"/><path class="cls-2" d="M17.08,49.15A10.69,10.69,0,1,0,6.39,38.46,10.7,10.7,0,0,0,17.08,49.15Zm74.84,0A10.69,10.69,0,1,0,81.23,38.46,10.7,10.7,0,0,0,91.92,49.15Zm5.35,5.35H86.57A10.66,10.66,0,0,0,79,57.61,24.44,24.44,0,0,1,91.59,75.88h11A5.34,5.34,0,0,0,108,70.54V65.19A10.7,10.7,0,0,0,97.27,54.5Zm-42.77,0A18.71,18.71,0,1,0,35.79,35.79,18.7,18.7,0,0,0,54.5,54.5Zm12.83,5.35H65.94a25.84,25.84,0,0,1-22.88,0H41.67A19.25,19.25,0,0,0,22.43,79.09V83.9a8,8,0,0,0,8,8H78.56a8,8,0,0,0,8-8V79.09A19.25,19.25,0,0,0,67.33,59.85ZM30,57.61a10.66,10.66,0,0,0-7.53-3.11H11.73A10.7,10.7,0,0,0,1,65.19v5.35a5.34,5.34,0,0,0,5.35,5.34h11A24.48,24.48,0,0,1,30,57.61Z"/></g></g></svg>